<svg xmlns="http://www.w3.org/2000/svg" viewBox="0 0 1500 1100" width="100%" height="100%">\n<rect width="1500" height="1100" fill="#111827"/>\n<text x="50" y="40" fill="#f9fafb" font-family="sans-serif" font-size="24" font-weight="bold">aho Council Operations (0.2.12)</text>\n<path d="M 440,350 C 540,350 460,150 560,150" fill="none" stroke="#4ade80" stroke-width="3"  />\n<path d="M 440,350 C 540,350 460,550 560,550" fill="none" stroke="#4ade80" stroke-width="3" stroke-dasharray="5,5" />\n<path d="M 440,350 C 540,350 460,550 560,550" fill="none" stroke="#4ade80" stroke-width="3" stroke-dasharray="5,5" />\n<path d="M 740,350 C 840,350 160,350 260,350" fill="none" stroke="#ef4444" stroke-width="3" stroke-dasharray="5,5" />\n<path d="M 740,150 C 840,150 760,100 860,100" fill="none" stroke="#4ade80" stroke-width="3"  />\n<path d="M 740,150 C 840,150 760,400 860,400" fill="none" stroke="#4ade80" stroke-width="3"  />\n<path d="M 740,150 C 840,150 760,300 860,300" fill="none" stroke="#4ade80" stroke-width="3"  />\n<path d="M 740,550 C 840,550 760,200 860,200" fill="none" stroke="#ef4444" stroke-width="3"  />\n<path d="M 440,150 C 540,150 760,400 860,400" fill="none" stroke="#9ca3af" stroke-width="3" stroke-dasharray="5,5" />\n<rect x="560" y="120" width="180" height="60" rx="8" fill="#4ade80" stroke="#374151" stroke-width="2"/>\n<text x="570" y="145" fill="#111827" font-family="sans-serif" font-size="14" font-weight="bold">Qwen-3.5:9B</text>\n<text x="570" y="165" fill="#111827" font-family="sans-serif" font-size="10">operational</text>\n<rect x="560" y="320" width="180" height="60" rx="8" fill="#ef4444" stroke="#374151" stroke-width="2"/>\n<text x="570" y="345" fill="#111827" font-family="sans-serif" font-size="14" font-weight="bold">Nemotron-mini:4B</text>\n<text x="570" y="365" fill="#111827" font-family="sans-serif" font-size="10">gap: classification logic silences error...</text>\n<rect x="560" y="520" width="180" height="60" rx="8" fill="#ef4444" stroke="#374151" stroke-width="2"/>\n<text x="570" y="545" fill="#111827" font-family="sans-serif" font-size="14" font-weight="bold">GLM-4.6V-Flash-9B</text>\n<text x="570" y="565" fill="#111827" font-family="sans-serif" font-size="10">gap: parsing logic converts real reviews...</text>\n<rect x="1160" y="120" width="180" height="60" rx="8" fill="#9ca3af" stroke="#374151" stroke-width="2"/>\n<text x="1170" y="145" fill="#111827" font-family="sans-serif" font-size="14" font-weight="bold">ChromaDB</text>\n<text x="1170" y="165" fill="#111827" font-family="sans-serif" font-size="10">unknown</text>\n<rect x="1160" y="320" width="180" height="60" rx="8" fill="#9ca3af" stroke="#374151" stroke-width="2"/>\n<text x="1170" y="345" fill="#111827" font-family="sans-serif" font-size="14" font-weight="bold">Nomic-Embed-Text</text>\n<text x="1170" y="365" fill="#111827" font-family="sans-serif" font-size="10">unknown</text>\n<rect x="260" y="120" width="180" height="60" rx="8" fill="#9ca3af" stroke="#374151" stroke-width="2"/>\n<text x="270" y="145" fill="#111827" font-family="sans-serif" font-size="14" font-weight="bold">OpenClaw</text>\n<text x="270" y="165" fill="#111827" font-family="sans-serif" font-size="10">unknown</text>\n<rect x="260" y="320" width="180" height="60" rx="8" fill="#4ade80" stroke="#374151" stroke-width="2"/>\n<text x="270" y="345" fill="#111827" font-family="sans-serif" font-size="14" font-weight="bold">NemoClaw</text>\n<text x="270" y="365" fill="#111827" font-family="sans-serif" font-size="10">operational</text>\n<rect x="860" y="470" width="180" height="60" rx="8" fill="#9ca3af" stroke="#374151" stroke-width="2"/>\n<text x="870" y="495" fill="#111827" font-family="sans-serif" font-size="14" font-weight="bold">mcp-firebase-tools</text>\n<text x="870" y="515" fill="#111827" font-family="sans-serif" font-size="10">unknown</text>\n<rect x="860" y="70" width="180" height="60" rx="8" fill="#4ade80" stroke="#374151" stroke-width="2"/>\n<text x="870" y="95" fill="#111827" font-family="sans-serif" font-size="14" font-weight="bold">mcp-context7</text>\n<text x="870" y="115" fill="#111827" font-family="sans-serif" font-size="10">operational</text>\n<rect x="860" y="570" width="180" height="60" rx="8" fill="#9ca3af" stroke="#374151" stroke-width="2"/>\n<text x="870" y="595" fill="#111827" font-family="sans-serif" font-size="14" font-weight="bold">mcp-firecrawl</text>\n<text x="870" y="615" fill="#111827" font-family="sans-serif" font-size="10">unknown</text>\n<rect x="860" y="270" width="180" height="60" rx="8" fill="#4ade80" stroke="#374151" stroke-width="2"/>\n<text x="870" y="295" fill="#111827" font-family="sans-serif" font-size="14" font-weight="bold">mcp-playwright</text>\n<text x="870" y="315" fill="#111827" font-family="sans-serif" font-size="10">operational</text>\n<rect x="860" y="670" width="180" height="60" rx="8" fill="#9ca3af" stroke="#374151" stroke-width="2"/>\n<text x="870" y="695" fill="#111827" font-family="sans-serif" font-size="14" font-weight="bold">mcp-dart</text>\n<text x="870" y="715" fill="#111827" font-family="sans-serif" font-size="10">unknown</text>\n<rect x="860" y="370" width="180" height="60" rx="8" fill="#4ade80" stroke="#374151" stroke-width="2"/>\n<text x="870" y="395" fill="#111827" font-family="sans-serif" font-size="14" font-weight="bold">mcp-server-filesystem</text>\n<text x="870" y="415" fill="#111827" font-family="sans-serif" font-size="10">operational</text>\n<rect x="860" y="770" width="180" height="60" rx="8" fill="#9ca3af" stroke="#374151" stroke-width="2"/>\n<text x="870" y="795" fill="#111827" font-family="sans-serif" font-size="14" font-weight="bold">mcp-server-memory</text>\n<text x="870" y="815" fill="#111827" font-family="sans-serif" font-size="10">unknown</text>\n<rect x="860" y="170" width="180" height="60" rx="8" fill="#4ade80" stroke="#374151" stroke-width="2"/>\n<text x="870" y="195" fill="#111827" font-family="sans-serif" font-size="14" font-weight="bold">mcp-server-sequentia...</text>\n<text x="870" y="215" fill="#111827" font-family="sans-serif" font-size="10">operational</text>\n<rect x="860" y="870" width="180" height="60" rx="8" fill="#9ca3af" stroke="#374151" stroke-width="2"/>\n<text x="870" y="895" fill="#111827" font-family="sans-serif" font-size="14" font-weight="bold">mcp-server-everything</text>\n<text x="870" y="915" fill="#111827" font-family="sans-serif" font-size="10">unknown</text>\n<rect x="560" y="520" width="180" height="60" rx="8" fill="#ef4444" stroke="#374151" stroke-width="2"/>\n<text x="570" y="545" fill="#111827" font-family="sans-serif" font-size="14" font-weight="bold">evaluator-agent</text>\n<text x="570" y="565" fill="#111827" font-family="sans-serif" font-size="10">gap: parsing logic converts real reviews...</text>\n</svg>